<mxfile host="app.diagrams.net" modified="2021-11-09T20:06:11.265Z" agent="5.0 (X11; CrOS x86_64 14092.77.0) AppleWebKit/537.36 (KHTML, like Gecko) Chrome/93.0.4577.107 Safari/537.36" etag="Y_OhnPl1Bq2CE8LtoahW" version="15.7.1" type="github">
  <diagram id="C5RBs43oDa-KdzZeNtuy" name="Page-1">
    <mxGraphModel dx="1695" dy="474" grid="1" gridSize="10" guides="1" tooltips="1" connect="1" arrows="1" fold="1" page="1" pageScale="1" pageWidth="827" pageHeight="1169" math="0" shadow="0">
      <root>
        <mxCell id="WIyWlLk6GJQsqaUBKTNV-0" />
        <mxCell id="WIyWlLk6GJQsqaUBKTNV-1" parent="WIyWlLk6GJQsqaUBKTNV-0" />
        <mxCell id="fnz_gpP_ahzdIGd_OYGO-3" value="" style="edgeStyle=orthogonalEdgeStyle;rounded=0;orthogonalLoop=1;jettySize=auto;html=1;" edge="1" parent="WIyWlLk6GJQsqaUBKTNV-1" source="WIyWlLk6GJQsqaUBKTNV-3" target="fnz_gpP_ahzdIGd_OYGO-2">
          <mxGeometry relative="1" as="geometry" />
        </mxCell>
        <mxCell id="fnz_gpP_ahzdIGd_OYGO-6" value="" style="edgeStyle=orthogonalEdgeStyle;rounded=0;orthogonalLoop=1;jettySize=auto;html=1;" edge="1" parent="WIyWlLk6GJQsqaUBKTNV-1" source="WIyWlLk6GJQsqaUBKTNV-3" target="fnz_gpP_ahzdIGd_OYGO-5">
          <mxGeometry relative="1" as="geometry" />
        </mxCell>
        <mxCell id="WIyWlLk6GJQsqaUBKTNV-3" value="Escape Room start" style="rounded=1;whiteSpace=wrap;html=1;fontSize=12;glass=0;strokeWidth=1;shadow=0;" parent="WIyWlLk6GJQsqaUBKTNV-1" vertex="1">
          <mxGeometry x="160" y="80" width="120" height="40" as="geometry" />
        </mxCell>
        <mxCell id="fnz_gpP_ahzdIGd_OYGO-2" value="Room 1" style="whiteSpace=wrap;html=1;rounded=1;shadow=0;strokeWidth=1;glass=0;" vertex="1" parent="WIyWlLk6GJQsqaUBKTNV-1">
          <mxGeometry x="-40" y="70" width="120" height="60" as="geometry" />
        </mxCell>
        <mxCell id="fnz_gpP_ahzdIGd_OYGO-10" value="" style="edgeStyle=orthogonalEdgeStyle;rounded=0;orthogonalLoop=1;jettySize=auto;html=1;" edge="1" parent="WIyWlLk6GJQsqaUBKTNV-1" source="fnz_gpP_ahzdIGd_OYGO-5" target="fnz_gpP_ahzdIGd_OYGO-9">
          <mxGeometry relative="1" as="geometry" />
        </mxCell>
        <mxCell id="fnz_gpP_ahzdIGd_OYGO-13" value="" style="edgeStyle=orthogonalEdgeStyle;rounded=0;orthogonalLoop=1;jettySize=auto;html=1;" edge="1" parent="WIyWlLk6GJQsqaUBKTNV-1" source="fnz_gpP_ahzdIGd_OYGO-5" target="fnz_gpP_ahzdIGd_OYGO-12">
          <mxGeometry relative="1" as="geometry" />
        </mxCell>
        <mxCell id="fnz_gpP_ahzdIGd_OYGO-5" value="Room 2" style="rounded=1;whiteSpace=wrap;html=1;fontSize=12;glass=0;strokeWidth=1;shadow=0;" vertex="1" parent="WIyWlLk6GJQsqaUBKTNV-1">
          <mxGeometry x="360" y="80" width="120" height="40" as="geometry" />
        </mxCell>
        <mxCell id="fnz_gpP_ahzdIGd_OYGO-7" style="edgeStyle=orthogonalEdgeStyle;rounded=0;orthogonalLoop=1;jettySize=auto;html=1;exitX=0;exitY=0;exitDx=0;exitDy=0;entryX=-0.001;entryY=0.137;entryDx=0;entryDy=0;entryPerimeter=0;" edge="1" parent="WIyWlLk6GJQsqaUBKTNV-1" source="fnz_gpP_ahzdIGd_OYGO-2" target="fnz_gpP_ahzdIGd_OYGO-2">
          <mxGeometry relative="1" as="geometry" />
        </mxCell>
        <mxCell id="fnz_gpP_ahzdIGd_OYGO-9" value="Eat Chips" style="rounded=1;whiteSpace=wrap;html=1;fontSize=12;glass=0;strokeWidth=1;shadow=0;" vertex="1" parent="WIyWlLk6GJQsqaUBKTNV-1">
          <mxGeometry x="560" y="80" width="120" height="40" as="geometry" />
        </mxCell>
        <mxCell id="fnz_gpP_ahzdIGd_OYGO-12" value="Don&#39;t eat chips" style="whiteSpace=wrap;html=1;rounded=1;shadow=0;strokeWidth=1;glass=0;" vertex="1" parent="WIyWlLk6GJQsqaUBKTNV-1">
          <mxGeometry x="360" y="190" width="120" height="60" as="geometry" />
        </mxCell>
      </root>
    </mxGraphModel>
  </diagram>
</mxfile>
